<?xml version="1.0" encoding="utf-8"?>
<!-- Generator: Adobe Illustrator 25.2.3, SVG Export Plug-In . SVG Version: 6.00 Build 0)  -->
<svg version="1.1" id="Layer_1" xmlns="http://www.w3.org/2000/svg" xmlns:xlink="http://www.w3.org/1999/xlink" x="0px" y="0px"
	 viewBox="0 0 512 512" style="enable-background:new 0 0 512 512;" xml:space="preserve">
<style type="text/css">
	.st0{fill:#5865F2;}
	.st1{fill:#FFFFFF;}
</style>
<circle id="ellipse" class="st0" cx="256" cy="256" r="256"/>
<g id="图层_2">
	<g id="Discord_Logos">
		<g id="Discord_Logo_-_Large_-_White">
			<path class="st1" d="M364.5,157.3c-20.5-9.4-42.2-16.1-64.5-19.8c-3,5.5-5.8,11.1-8.3,16.8c-23.7-3.6-47.9-3.6-71.6,0
				c-2.5-5.7-5.2-11.3-8.3-16.8c-22.3,3.8-44,10.5-64.6,19.9c-40.8,60.4-51.9,119.3-46.4,177.4l0,0c23.9,17.7,50.7,31.1,79.1,39.7
				c6.4-8.6,12.1-17.8,16.9-27.3c-9.3-3.5-18.2-7.7-26.7-12.7c2.2-1.6,4.4-3.3,6.5-4.9c50.1,23.6,108.1,23.6,158.2,0
				c2.1,1.7,4.3,3.4,6.5,4.9c-8.5,5-17.5,9.3-26.7,12.8c4.9,9.6,10.5,18.7,16.9,27.3c28.5-8.6,55.3-22,79.2-39.7l0,0
				C417.5,267.5,399.9,209.1,364.5,157.3z M204.1,299.1c-15.4,0-28.2-14-28.2-31.2s12.3-31.3,28.1-31.3s28.5,14.1,28.2,31.3
				S219.8,299.1,204.1,299.1z M307.9,299.1c-15.4,0-28.1-14-28.1-31.2s12.3-31.3,28.1-31.3c15.8,0,28.4,14.1,28.1,31.3
				C335.8,285.1,323.7,299.1,307.9,299.1z"/>
		</g>
	</g>
</g>
</svg>
